<svg id="Calque_1" data-name="Calque 1" xmlns="http://www.w3.org/2000/svg" viewBox="0 0 1000 1000"><defs><style>.cls-1{fill:#1ed760;}</style></defs><title>ComunifyLogo</title><circle class="cls-1" cx="500" cy="500" r="492"/><circle cx="370.07" cy="359.74" r="114"/><circle cx="674.83" cy="297.75" r="114"/><path d="M232.26,446.76s56.39,75,121.14,81.89,133.78-59,133.78-59,65.45,87-31.12,346.61L202.34,780S154.35,573.89,232.26,446.76Z"/><path d="M790.61,422.6s-69,65.94-133.79,59-121.13-81.89-121.13-81.89a251.55,251.55,0,0,0-19.85,40.41c39.67,58.87,39.58,140.21,29.51,252.3-.88,9.83-4.1,35.79-5.41,45.36l219.54,31.43C856.06,509.63,790.61,422.6,790.61,422.6Z"/></svg>